<svg width="452" height="446" viewBox="0 0 452 446" fill="none" xmlns="http://www.w3.org/2000/svg">
<g clip-path="url(#clip0_5_2)">
<path d="M328.154 253.087V376.291L347.821 409.877L349.318 412.432H426.917L428.485 253.087H328.154Z" fill="#E6E6E6"/>
<path opacity="0.1" d="M328.154 253.087V376.291L347.821 409.877L349.028 253.087H328.154Z" fill="black"/>
<path d="M140.818 249.801V373.006L121.151 406.592L119.654 409.146H42.0548L40.4868 249.801H140.818Z" fill="#E6E6E6"/>
<path opacity="0.1" d="M140.818 249.801V373.006L121.151 406.592L119.944 249.801H140.818Z" fill="black"/>
<path d="M452 247.338V254.729H30.297V244.052L69.4885 222.696H417.512L452 247.338Z" fill="#E6E6E6"/>
<path opacity="0.1" d="M452 247.338V254.729H30.297V244.052L452 247.338Z" fill="black"/>
<path d="M90.6526 284.299H71.8401L64.0018 278.549H99.2745L90.6526 284.299Z" fill="#3F3D56"/>
<path d="M90.6526 308.118H71.8401L64.0018 302.369H99.2745L90.6526 308.118Z" fill="#3F3D56"/>
<path d="M90.6526 341.795H71.8401L64.0018 336.044H99.2745L90.6526 341.795Z" fill="#3F3D56"/>
<path d="M90.6526 375.47H71.8401L64.0018 369.721H99.2745L90.6526 375.47Z" fill="#3F3D56"/>
<path d="M378.319 287.584H397.132L404.97 281.834H369.697L378.319 287.584Z" fill="#3F3D56"/>
<path d="M378.319 311.404H397.132L404.97 305.654H369.697L378.319 311.404Z" fill="#3F3D56"/>
<path d="M378.319 345.08H397.132L404.97 339.33H369.697L378.319 345.08Z" fill="#3F3D56"/>
<path d="M378.319 378.756H397.132L404.97 373.006H369.697L378.319 378.756Z" fill="#3F3D56"/>
<path d="M391.13 80.2223H232.759C231.972 80.2222 231.193 80.3845 230.467 80.6999C229.74 81.0152 229.08 81.4775 228.523 82.0603C227.967 82.6432 227.526 83.3351 227.225 84.0966C226.924 84.8581 226.769 85.6743 226.769 86.4985V198.29C226.769 199.114 226.924 199.93 227.225 200.692C227.526 201.453 227.967 202.145 228.523 202.728C229.08 203.311 229.74 203.773 230.467 204.088C231.193 204.404 231.972 204.566 232.759 204.566H292.878L290.626 219.635C290.626 219.635 277.754 226.8 286.804 227.011C295.855 227.222 338.493 227.011 338.493 227.011C338.493 227.011 346.739 227.011 333.666 219.424L331.547 204.566H391.13C391.917 204.566 392.696 204.404 393.422 204.088C394.149 203.773 394.809 203.311 395.366 202.728C395.922 202.145 396.363 201.453 396.664 200.692C396.965 199.93 397.12 199.114 397.12 198.29V86.4985C397.12 85.6743 396.965 84.8581 396.664 84.0966C396.363 83.3351 395.922 82.6432 395.366 82.0603C394.809 81.4775 394.149 81.0152 393.422 80.6999C392.696 80.3845 391.917 80.2222 391.13 80.2223Z" fill="#3F3D56"/>
<path d="M391.388 86.861H232.501V180.013H391.388V86.861Z" fill="#F2F2F2"/>
<path d="M311.944 84.9642C312.5 84.9642 312.95 84.4924 312.95 83.9105C312.95 83.3285 312.5 82.8567 311.944 82.8567C311.389 82.8567 310.939 83.3285 310.939 83.9105C310.939 84.4924 311.389 84.9642 311.944 84.9642Z" fill="#F2F2F2"/>
<path d="M311.944 200.035C314.055 200.035 315.766 198.242 315.766 196.03C315.766 193.819 314.055 192.026 311.944 192.026C309.834 192.026 308.123 193.819 308.123 196.03C308.123 198.242 309.834 200.035 311.944 200.035Z" fill="#F2F2F2"/>
<path d="M305.99 238.391V240.499H197.786V238.813L197.935 238.391L200.602 230.804H303.778L305.99 238.391Z" fill="#3F3D56"/>
<path d="M347.63 236.328C347.433 237.211 346.689 238.143 345.007 239.024C338.974 242.185 326.705 238.181 326.705 238.181C326.705 238.181 317.253 236.495 317.253 232.069C317.518 231.878 317.795 231.706 318.081 231.553C320.618 230.146 329.029 226.676 343.942 231.699C345.041 232.061 346.022 232.735 346.777 233.646C347.111 233.991 347.363 234.413 347.511 234.88C347.66 235.346 347.7 235.842 347.63 236.328Z" fill="#3F3D56"/>
<path opacity="0.1" d="M347.63 236.328C340.245 239.293 333.662 239.515 326.906 234.598C324.352 232.619 321.258 231.551 318.081 231.553C320.618 230.146 329.029 226.676 343.942 231.699C345.041 232.061 346.022 232.735 346.777 233.646C347.111 233.991 347.363 234.413 347.511 234.88C347.66 235.346 347.7 235.842 347.63 236.328Z" fill="black"/>
<path d="M338.37 234.598C339.814 234.598 340.985 234.221 340.985 233.755C340.985 233.289 339.814 232.912 338.37 232.912C336.926 232.912 335.756 233.289 335.756 233.755C335.756 234.221 336.926 234.598 338.37 234.598Z" fill="#F2F2F2"/>
<path opacity="0.1" d="M305.99 238.391V240.499H197.786V238.813L197.935 238.391H305.99Z" fill="black"/>
<path d="M60.1627 9.63062e-05C59.0645 -0.0943833 57.9649 0.163024 57.0095 0.738209C56.0714 1.41139 55.4802 2.59073 54.8767 3.68818C52.5692 7.93426 49.4453 11.6319 45.7029 14.5469C42.977 16.6394 39.5115 19.2485 39.9779 23.1066C40.2239 24.3807 40.6731 25.6022 41.3065 26.7199C43.8212 32.0391 50.6833 36.1498 50.0083 42.2195C52.5067 37.8367 49.1649 35.6695 51.6633 31.2867C52.8531 29.1995 54.9199 26.8435 56.7163 28.1542C57.3178 28.5931 57.7127 29.3803 58.339 29.7654C59.8333 30.6842 61.4231 28.9276 62.7458 27.6833C67.3071 23.3926 73.7937 24.5166 79.4698 25.8535C82.1494 26.4847 85.0927 27.3127 86.6768 29.9964C88.7595 33.525 84.698 37.3358 83.6718 41.3252C83.5881 41.6651 83.5841 42.0213 83.6603 42.3631C83.7365 42.705 83.8906 43.0225 84.1094 43.2884C84.3282 43.5542 84.6052 43.7606 84.9167 43.8899C85.2282 44.0191 85.565 44.0674 85.8982 44.0305C87.6013 43.8545 89.6188 43.7102 89.7196 42.927C91.8624 43.0069 94.488 42.7527 95.4061 40.4146C95.6867 39.4895 95.835 38.526 95.8463 37.5554C96.1832 33.6279 97.774 30.0449 98.8278 26.3069C99.8816 22.5689 100.34 18.1882 98.5614 14.874C97.9267 13.7714 97.1418 12.7717 96.2315 11.9067C86.1395 1.67263 72.8707 -0.0150949 60.1627 9.63062e-05Z" fill="#2F2E41"/>
<path d="M52.2031 49.8859C52.2031 49.8859 54.398 69.0519 46.3502 70.5852C38.3025 72.1185 53.6663 98.1843 53.6663 98.1843L90.247 102.784L81.4676 72.1185C81.4676 72.1185 75.6147 69.8186 79.2728 54.4857C82.9308 39.1529 52.2031 49.8859 52.2031 49.8859Z" fill="#FFB8B8"/>
<path d="M29.8889 379.158L32.8157 421.324H48.179L43.7898 379.158H29.8889Z" fill="#FFB8B8"/>
<path d="M142.557 299.428L144.752 334.693L161.579 327.027L154.994 297.895L142.557 299.428Z" fill="#FFB8B8"/>
<path d="M18.9148 218.164C18.9148 218.164 19.6464 262.629 24.0361 277.195C28.4258 291.761 27.6942 292.528 26.9626 294.828C26.2309 297.128 25.4993 295.595 25.4993 299.428C25.4993 303.261 24.0361 363.826 25.4993 369.192C26.9625 374.559 21.1097 383.758 25.4993 384.525C29.889 385.292 50.3741 384.525 51.1057 379.925C51.8374 375.325 45.2529 373.792 48.1793 370.726C51.1058 367.659 55.4954 304.794 55.4954 304.794L65.738 261.096L84.7599 238.096H124.999L137.436 288.695C137.436 288.695 132.315 303.261 135.973 303.261C139.631 303.261 161.579 307.861 161.579 290.995C161.579 274.129 154.263 224.297 152.8 222.764C151.337 221.23 153.531 215.864 151.337 213.564C149.142 211.264 123.535 195.165 114.024 192.098C104.513 189.031 91.1712 185.382 91.1712 185.382L18.9148 218.164Z" fill="#2F2E41"/>
<path d="M161.579 320.894C161.579 320.894 150.605 317.061 145.484 328.56C140.362 340.06 142.557 343.126 142.557 343.126C142.557 343.126 159.384 349.26 162.311 346.193C163.584 344.859 167.627 344.395 171.789 344.297C178.127 344.148 179.813 334.752 173.827 332.564C173.649 332.498 173.468 332.442 173.285 332.393C167.432 330.86 161.579 320.894 161.579 320.894Z" fill="#2F2E41"/>
<path d="M68.6644 62.5355C80.7862 62.5355 90.6128 52.2384 90.6128 39.5362C90.6128 26.8341 80.7862 16.537 68.6644 16.537C56.5427 16.537 46.716 26.8341 46.716 39.5362C46.716 52.2384 56.5427 62.5355 68.6644 62.5355Z" fill="#FFB8B8"/>
<path d="M40.1315 80.1682C40.1315 80.1682 75.9805 87.8347 84.7599 75.5684C93.5392 63.3021 97.1973 110.067 97.1973 110.067L101.587 159.132L95.0024 185.965C95.0024 185.965 60.6167 215.097 49.6425 217.397C38.6683 219.697 21.8412 221.23 21.8412 221.23C21.8412 221.23 26.9626 136.133 26.9626 134.6C26.9626 133.067 40.1315 80.1682 40.1315 80.1682Z" fill="#6C63FF"/>
<path d="M51.0341 65.7901C51.0341 65.7901 43.058 61.0022 40.8632 65.602C38.6683 70.2019 18.1832 81.7015 15.9883 81.7015C13.7935 81.7015 20.378 145.333 17.4516 152.999C14.5251 160.666 0.624494 216.63 8.67223 221.23C16.72 225.83 10.8671 216.63 18.9148 228.13C26.9625 239.63 66.4696 239.63 68.6644 235.03C70.8592 230.43 51.1057 195.931 54.7638 163.732C58.4218 131.533 64.2747 87.068 59.1535 80.9349C54.0322 74.8017 51.0341 65.7901 51.0341 65.7901Z" fill="#2F2E41"/>
<path d="M77.4438 70.9686L78.4629 67.2936C78.4629 67.2936 108.903 77.8683 110.366 84.7681C111.83 91.6679 111.098 139.966 105.977 143.8C100.855 147.633 93.5393 153.766 98.6605 162.966C103.782 172.165 109.635 182.132 114.024 182.898C118.414 183.665 126.462 189.031 124.267 194.398C122.072 199.764 95.7341 189.798 95.7341 189.798C95.7341 189.798 78.1754 175.998 78.907 154.532C79.6386 133.067 77.4438 70.9686 77.4438 70.9686Z" fill="#2F2E41"/>
<path d="M103.05 161.432L85.4915 195.931C85.4915 195.931 59.8851 223.53 74.5173 226.597C89.1496 229.663 97.1973 201.298 97.1973 201.298L116.219 172.932L103.05 161.432Z" fill="#FFB8B8"/>
<path d="M61.2319 6.01781C60.3472 5.94912 59.4611 6.12922 58.6651 6.53951C57.9454 7.09032 57.3522 7.80268 56.9289 8.62452C54.9775 11.7004 52.4337 14.3147 49.461 16.2994C47.2421 17.7784 44.421 19.6224 44.8006 22.3493C45.0067 23.2636 45.3735 24.1296 45.8822 24.9032C47.9363 28.7008 48.754 33.0962 48.2117 37.4242L54.3131 28.131C55.2816 26.6558 56.9641 24.9905 58.4264 25.917C58.916 26.2272 59.2375 26.7836 59.7473 27.0557C60.9638 27.7052 62.2579 26.4636 63.3347 25.5841C67.0478 22.5515 72.3282 23.346 76.9487 24.2908C79.1301 24.7369 81.526 25.3222 82.8155 27.219C84.9584 30.3712 82.7208 34.9259 83.9715 38.5675C84.3216 38.3106 84.6189 37.9827 84.8458 37.6032C85.0727 37.2238 85.2246 36.8004 85.2925 36.3583C87.0368 36.4148 89.1742 36.2351 89.9216 34.5825C90.1489 33.9349 90.27 33.2516 90.2798 32.5616C90.5542 29.7857 91.8491 27.2533 92.7069 24.6113C93.5648 21.9693 93.9378 18.873 92.4901 16.5306C91.9605 15.7369 91.3213 15.0301 90.5934 14.4333C82.3781 7.19994 71.5767 6.00708 61.2319 6.01781Z" fill="#2F2E41"/>
<path d="M103.05 81.7015L109.867 83.5975C109.867 83.5975 125.73 126.167 122.072 155.299C118.414 184.432 116.219 178.298 116.219 178.298C116.219 178.298 110.366 164.499 97.1973 167.565L103.05 81.7015Z" fill="#2F2E41"/>
<path d="M30.9026 415.751C29.1383 418.264 29.4921 421.855 27.9293 424.51C26.5746 426.811 24.0216 428.017 22.3272 430.056C21.7866 430.734 21.3046 431.46 20.887 432.227C19.3152 434.986 18.0376 438.522 19.5856 441.296C20.8309 443.527 23.4484 444.399 25.849 444.993C28.8832 445.745 32.0357 446.346 35.1049 445.772C38.1742 445.198 41.1738 443.228 42.2681 440.169C42.4832 439.4 42.7389 438.644 43.034 437.904C44.6976 434.472 49.9155 434.435 51.618 431.025C52.8095 428.638 51.7142 425.753 50.6194 423.315L47.2757 415.872C46.1661 413.401 41.6678 414.822 39.3227 414.23C36.2643 413.458 33.1028 412.607 30.9026 415.751Z" fill="#2F2E41"/>
<path d="M6.47739 176.765L37.2051 226.597C37.2051 226.597 56.227 251.896 62.0799 240.396C67.9328 228.897 41.5948 209.731 41.5948 209.731L21.8412 171.399L6.47739 176.765Z" fill="#FFB8B8"/>
<path d="M21.8412 83.2348L15.9883 81.7015C15.9883 81.7015 4.28255 85.5347 1.3561 101.634C-1.57034 117.734 0.624487 182.132 4.28255 182.898C7.9406 183.665 22.3497 171.685 24.6561 174.225C26.9625 176.765 19.6464 163.732 21.8412 156.832C24.036 149.933 21.8412 83.2348 21.8412 83.2348Z" fill="#2F2E41"/>
<path d="M296.906 117.455H277.997V122.226H296.906V117.455Z" fill="#6C63FF"/>
<path d="M362.388 117.455H355.735V122.226H362.388V117.455Z" fill="#6C63FF"/>
<path d="M375.695 117.455H369.042V122.226H375.695V117.455Z" fill="#6C63FF"/>
<path d="M348.732 117.455H303.559V122.226H348.732V117.455Z" fill="#6C63FF"/>
<path d="M273.094 148.278H254.185V153.048H273.094V148.278Z" fill="#6C63FF"/>
<path d="M338.576 148.278H331.923V153.048H338.576V148.278Z" fill="#6C63FF"/>
<path d="M351.883 148.278H345.23V153.048H351.883V148.278Z" fill="#6C63FF"/>
<path d="M324.92 148.278H279.748V153.048H324.92V148.278Z" fill="#6C63FF"/>
<path d="M351.183 128.097H332.273V132.867H351.183V128.097Z" fill="#6C63FF"/>
<path d="M376.745 128.097H357.836V132.867H376.745V128.097Z" fill="#6C63FF"/>
<path d="M260.838 128.097H254.185V132.867H260.838V128.097Z" fill="#6C63FF"/>
<path d="M274.145 128.097H267.492V132.867H274.145V128.097Z" fill="#6C63FF"/>
<path d="M325.97 128.097H280.798V132.867H325.97V128.097Z" fill="#6C63FF"/>
<path d="M311.963 138.371H293.054V143.141H311.963V138.371Z" fill="#6C63FF"/>
<path d="M286.401 138.371H267.492V143.141H286.401V138.371Z" fill="#6C63FF"/>
<path d="M260.838 138.371H254.185V143.141H260.838V138.371Z" fill="#6C63FF"/>
<path d="M376.745 138.371H370.092V143.141H376.745V138.371Z" fill="#6C63FF"/>
<path d="M363.439 138.371H318.267V143.141H363.439V138.371Z" fill="#6C63FF"/>
</g>
<defs>
<clipPath id="clip0_5_2">
<rect width="452" height="446" fill="white"/>
</clipPath>
</defs>
</svg>
